<svg version="1.2" xmlns="http://www.w3.org/2000/svg" viewBox="0 0 375 376" width="375" height="376">
	<title>site_logo_2</title>
	<style>
		.s0 { fill: #ffffff } 
		.s1 { fill: #ff4500 } 
	</style>
	<g>
		<g>
			<g>
				<path class="s0" d="m42.1 220.2l91-154.4 91.2 154.4z"/>
			</g>
		</g>
	</g>
	<g>
		<g>
			<g>
				<path class="s1" d="m296.2 148h40v72.2h-112.1v-144.3h72.1z"/>
			</g>
		</g>
	</g>
	<g>
		<g>
			<g>
				<path class="s0" d="m55.5 234.9q0.9 0 1.6 0.4 0.8 0.3 1.2 1.2l15.5 30.5q0.7 1.2 0.4 2.1-0.3 0.9-1.3 1.4-0.9 0.5-1.9 0.5-0.8 0-1.6-0.4-0.8-0.4-1.2-1.2l-3.9-7.6h-17.7l-3.8 7.6q-0.4 0.9-1.2 1.3-0.8 0.3-1.5 0.3-1 0-1.9-0.5-0.9-0.5-1.3-1.4-0.4-0.9 0.1-2l15.6-30.6q0.5-1 1.2-1.3 0.6-0.3 1.7-0.3zm0 9.3l-6.2 12.3h12.3z"/>
			</g>
		</g>
	</g>
	<g>
		<g>
			<g>
				<path class="s0" d="m92 235.5q5 0 8.7 2.2 3.8 2.2 5.8 6.1 2.1 3.9 2.1 9.2 0 5.2-2.1 9.2-2 3.9-5.8 6.1-3.7 2.2-8.7 2.2h-11.3q-1.5 0-2.6-1-1-0.9-1-2.3v-28.5q0-1.3 1-2.3 1.1-0.9 2.6-0.9zm0 29.5q3.1 0 5.4-1.5 2.3-1.5 3.6-4.2 1.3-2.7 1.3-6.3 0-3.6-1.3-6.4-1.3-2.7-3.6-4.2-2.3-1.5-5.4-1.5h-8.7v24.1z"/>
			</g>
		</g>
	</g>
	<g>
		<g>
			<g>
				<path class="s0" d="m121.3 264.8h19.5q1.6 0 2.4 0.9 0.8 0.9 0.8 1.9 0 1.1-0.8 1.9-0.8 0.9-2.4 1h-25.5q-1.6 0-2.5-0.8-0.9-0.8-0.9-1.9 0-1 0.9-2l21.7-24.8h-18.5q-1.5 0-2.2-0.9-0.8-0.8-0.8-1.8 0-1 0.8-1.9 0.7-0.9 2.2-0.9h24.7q1.6 0 2.5 0.8 0.9 0.7 0.9 1.8 0 1-1 2.2z"/>
			</g>
		</g>
	</g>
	<g>
		<g>
			<g>
				<path class="s0" d="m151.4 237l10.1 13.8 10.1-13.6q0.6-0.8 1.3-1.2 0.8-0.5 1.6-0.5 1.1 0 1.9 0.7 0.8 0.7 1 1.8 0.2 1.1-0.7 2.3l-12 16.1v10.8q0 1.5-1 2.4-1.1 0.9-2.2 0.9-1.3 0-2.2-0.9-1-0.9-1-2.4v-10.8l-12.3-16.2q-0.8-1.2-0.6-2.3 0.2-1 1.1-1.7 0.8-0.7 2-0.7 1.8 0 2.9 1.5z"/>
			</g>
		</g>
	</g>
	<g>
		<g>
			<g>
			</g>
		</g>
	</g>
	<g>
		<g>
			<g>
				<path class="s0" d="m200.9 270.5q-1.8 0-2.5-0.8-0.8-0.8-0.8-2.2v-29.2q0-1.4 1-2.1 1-0.7 2.2-0.7 1.2 0 2.2 0.7 1 0.7 1 2.1v26.7h18q1.6 0 2.5 0.9 0.8 0.8 0.8 1.8 0 1.1-0.8 1.9-0.9 0.9-2.5 0.9z"/>
			</g>
		</g>
	</g>
	<g>
		<g>
			<g>
				<path class="s0" d="m244 234.9q0.9 0 1.7 0.4 0.8 0.3 1.2 1.2l15.5 30.5q0.7 1.2 0.4 2.1-0.3 0.9-1.3 1.4-0.9 0.5-2 0.5-0.7 0-1.5-0.4-0.8-0.4-1.3-1.2l-3.8-7.6h-17.7l-3.8 7.6q-0.4 0.9-1.2 1.3-0.8 0.3-1.6 0.3-0.9 0-1.8-0.5-0.9-0.5-1.3-1.4-0.4-0.9 0-2l15.7-30.6q0.4-1 1.1-1.3 0.7-0.3 1.7-0.3zm0 9.3l-6.1 12.3h12.3z"/>
			</g>
		</g>
	</g>
	<g>
		<g>
			<g>
				<path class="s0" d="m283.1 235.5q2 0 4.3 0.3 2.3 0.4 4.4 1.4 2.1 1 3.5 2.9 1.3 1.9 1.3 5 0 1.8-0.9 3.6-0.8 1.9-2.3 2.8 2.8 1.1 4.2 3.3 1.4 2.2 1.4 5.1 0 3.2-1.3 5.2-1.3 2.1-3.4 3.3-2.1 1.1-4.7 1.6-2.7 0.5-5.4 0.5h-13.3q-1.4 0-2.3-0.9-1-0.8-1-2v-29.2q0-1.3 1-2.1 0.9-0.8 2.3-0.8zm0 5.4h-9.2v8.5h9.3q2.8 0 4.9-1 2.1-1 2.1-3.3 0-1.8-1.2-2.7-1.2-0.9-2.9-1.2-1.7-0.3-3-0.3zm2.7 14h-11.9v10.1h10.3q2 0 3.9-0.3 1.9-0.4 3.2-1.6 1.2-1.1 1.2-3.2 0-2.6-2-3.8-1.9-1.2-4.7-1.2z"/>
			</g>
		</g>
	</g>
	<g>
		<g>
			<g>
				<path class="s0" d="m302.5 262.2q-0.4-1.6 0.8-2.5 1.1-1 2.5-1 1.1 0 2 0.6 0.8 0.5 1 1.6 0.7 1.7 2.3 2.7 1.7 0.9 3.8 1.3 2.1 0.4 3.9 0.4 1.4 0 3.1-0.3 1.7-0.2 3.3-0.8 1.5-0.5 2.5-1.6 1-1 1-2.7 0-1.7-1.5-2.6-1.4-0.8-3.7-1.1-2.2-0.4-4.7-0.6-2.8-0.2-5.6-0.6-2.9-0.4-5.2-1.4-2.3-1-3.8-2.9-1.4-1.9-1.4-5.1 0-2.8 1.4-4.8 1.5-2 3.8-3.3 2.3-1.3 5-1.9 2.7-0.7 5.2-0.7 2.9 0 6 0.7 3.2 0.7 5.8 2.3 2.6 1.7 3.8 4.7 0.5 1.6-0.6 2.6-1.1 1-2.5 1-0.9 0-1.7-0.4-0.8-0.4-1.1-1.1-0.6-1.7-2.3-2.6-1.6-0.8-3.6-1-2-0.3-3.7-0.3-1.1 0-2.6 0.2-1.5 0.3-2.9 0.8-1.5 0.6-2.4 1.5-1 1-1 2.4 0 1.8 1.4 2.6 1.3 0.9 3.6 1.3 2.3 0.3 5 0.5 2.9 0.3 5.7 0.6 2.8 0.4 5.1 1.3 2.3 0.9 3.7 2.7 1.4 1.9 1.4 5.2 0 3.3-1.6 5.4-1.6 2.2-4.1 3.4-2.5 1.3-5.4 1.8-2.8 0.5-5.4 0.5-2.2 0-4.7-0.4-2.5-0.4-4.9-1.4-2.4-1-4.2-2.7-1.8-1.7-2.5-4.3z"/>
			</g>
		</g>
	</g>
</svg>