<svg version="1.2" xmlns="http://www.w3.org/2000/svg" viewBox="0 0 375 258" width="375" height="258">
	<title>1</title>
	<style>
		.s0 { fill: #000000 } 
		.s1 { fill: #ff4500 } 
	</style>
	<g>
		<g>
			<g>
				<path class="s0" d="m3.3 194.4l113.2-191.9 113.2 191.9z"/>
			</g>
		</g>
	</g>
	<g>
		<g>
			<g>
				<path class="s1" d="m319.1 104.7h49.7v89.7h-139.3v-179.3h89.6z"/>
			</g>
		</g>
	</g>
	<g>
		<g>
			<g>
				<path class="s0" d="m28.3 211.6q1 0 1.9 0.5 1 0.4 1.4 1.4l18.7 36.6q0.8 1.4 0.5 2.5-0.4 1.1-1.6 1.7-1.1 0.6-2.3 0.6-1 0-1.9-0.5-1-0.5-1.5-1.4l-4.6-9.2h-21.2l-4.7 9.2q-0.4 1.1-1.4 1.5-0.9 0.4-1.9 0.4-1.1 0-2.2-0.6-1.1-0.6-1.5-1.7-0.5-1.1 0.1-2.3l18.8-36.8q0.5-1.2 1.3-1.5 0.8-0.4 2.1-0.4zm0 11.2l-7.4 14.7h14.8z"/>
			</g>
		</g>
	</g>
	<g>
		<g>
			<g>
				<path class="s0" d="m72.1 212.3q6 0 10.5 2.6 4.5 2.6 7 7.4 2.5 4.7 2.5 11 0 6.3-2.5 11-2.5 4.8-7 7.4-4.5 2.6-10.5 2.6h-13.6q-1.7 0-3-1.2-1.3-1.1-1.3-2.7v-34.3q0-1.6 1.3-2.7 1.3-1.1 3-1.1zm0 35.4q3.7 0 6.5-1.8 2.8-1.8 4.4-5 1.5-3.2 1.5-7.6 0-4.3-1.5-7.6-1.6-3.3-4.4-5.1-2.8-1.9-6.5-1.9h-10.4v29z"/>
			</g>
		</g>
	</g>
	<g>
		<g>
			<g>
				<path class="s0" d="m107.3 247.5h23.4q1.9 0 2.9 1 1 1.1 1 2.3 0 1.3-1 2.3-1 1-2.9 1.2h-30.6q-1.9 0-3-1-1.1-0.9-1.1-2.2 0-1.2 1.1-2.5l26.1-29.7h-22.2q-1.8 0-2.7-1.1-0.9-1-0.9-2.2 0-1.2 0.9-2.2 0.9-1.1 2.6-1.1h29.6q2 0 3.1 0.9 1 0.9 1 2.2 0 1.2-1.1 2.7z"/>
			</g>
		</g>
	</g>
	<g>
		<g>
			<g>
				<path class="s0" d="m143.4 214.1l12.1 16.6 12.2-16.4q0.7-0.9 1.6-1.5 0.9-0.5 1.9-0.5 1.3 0 2.3 0.8 0.9 0.9 1.2 2.2 0.2 1.3-0.8 2.8l-14.5 19.3v12.9q0 1.9-1.2 2.9-1.3 1.1-2.6 1.1-1.6 0-2.7-1.1-1.1-1-1.1-2.9v-12.9l-14.8-19.5q-1-1.4-0.8-2.7 0.3-1.3 1.3-2.1 1.1-0.8 2.4-0.8 2.2 0 3.5 1.8z"/>
			</g>
		</g>
	</g>
	<g>
		<g>
			<g>
			</g>
		</g>
	</g>
	<g>
		<g>
			<g>
				<path class="s0" d="m202.9 254.3q-2.1 0-3.1-1-0.9-0.9-0.9-2.6v-35.1q0-1.7 1.2-2.5 1.3-0.8 2.7-0.8 1.4 0 2.6 0.8 1.2 0.8 1.2 2.5v32.1h21.6q2 0 3 1 1 1.1 1 2.3 0 1.2-1 2.3-1 1-3 1z"/>
			</g>
		</g>
	</g>
	<g>
		<g>
			<g>
				<path class="s0" d="m254.7 211.6q1 0 2 0.5 0.9 0.4 1.3 1.4l18.7 36.6q0.9 1.4 0.5 2.5-0.4 1.1-1.5 1.7-1.2 0.6-2.4 0.6-0.9 0-1.9-0.5-0.9-0.5-1.5-1.4l-4.6-9.2h-21.2l-4.6 9.2q-0.5 1.1-1.5 1.5-0.9 0.4-1.8 0.4-1.2 0-2.3-0.6-1-0.6-1.5-1.7-0.5-1.1 0.1-2.3l18.8-36.8q0.5-1.2 1.3-1.5 0.8-0.4 2.1-0.4zm0 11.2l-7.4 14.7h14.8z"/>
			</g>
		</g>
	</g>
	<g>
		<g>
			<g>
				<path class="s0" d="m301.6 212.3q2.3 0 5.1 0.4 2.8 0.4 5.3 1.6 2.5 1.2 4.2 3.5 1.6 2.3 1.6 6 0 2.1-1 4.4-1.1 2.2-2.9 3.3 3.4 1.3 5.1 3.9 1.7 2.7 1.7 6.2 0 3.8-1.6 6.2-1.5 2.5-4.1 3.9-2.6 1.4-5.7 2-3.1 0.6-6.3 0.6h-16.1q-1.6 0-2.8-1-1.1-1.1-1.1-2.5v-35q0-1.6 1.1-2.5 1.2-1 2.8-1zm0 6.5h-11v10.2h11.2q3.3 0 5.9-1.2 2.5-1.2 2.5-4 0-2.2-1.5-3.2-1.5-1.1-3.5-1.4-2-0.4-3.6-0.4zm3.3 16.8h-14.3v12.1h12.4q2.3 0 4.6-0.4 2.3-0.5 3.8-1.8 1.5-1.4 1.5-3.9 0-3.1-2.3-4.6-2.4-1.4-5.7-1.4z"/>
			</g>
		</g>
	</g>
	<g>
		<g>
			<g>
				<path class="s0" d="m324.8 244.3q-0.4-1.9 1-3 1.3-1.1 3.1-1.1 1.3 0 2.3 0.6 1 0.6 1.3 1.9 0.7 2.2 2.7 3.3 2 1.1 4.5 1.6 2.5 0.4 4.7 0.4 1.7 0 3.8-0.3 2-0.2 3.9-0.9 1.8-0.7 3-2 1.2-1.2 1.2-3.2 0-2.1-1.8-3.1-1.7-1-4.4-1.4-2.7-0.4-5.7-0.6-3.3-0.3-6.7-0.8-3.4-0.6-6.2-1.7-2.8-1.2-4.6-3.5-1.7-2.3-1.7-6 0-3.4 1.7-5.8 1.8-2.5 4.5-4 2.8-1.6 6-2.3 3.3-0.8 6.4-0.8 3.4 0 7.1 0.8 3.8 0.8 6.9 2.8 3.2 2 4.7 5.6 0.5 1.9-0.8 3.1-1.3 1.2-3 1.2-1 0-2-0.5-0.9-0.5-1.3-1.3-0.8-2.1-2.8-3-2-1-4.3-1.3-2.4-0.3-4.5-0.3-1.3 0-3.1 0.2-1.8 0.3-3.5 0.9-1.7 0.7-2.9 1.9-1.2 1.1-1.2 2.8 0 2.1 1.7 3.2 1.6 1.1 4.4 1.4 2.7 0.4 5.9 0.7 3.5 0.3 6.9 0.8 3.4 0.4 6.1 1.5 2.8 1.1 4.4 3.3 1.7 2.2 1.7 6.2 0 3.9-1.9 6.5-1.9 2.5-4.9 4.1-3 1.5-6.5 2.1-3.4 0.6-6.5 0.6-2.6 0-5.6-0.5-3-0.5-5.9-1.7-2.9-1.2-5-3.2-2.2-2.1-3.1-5.2z"/>
			</g>
		</g>
	</g>
</svg>