<svg xmlns="http://www.w3.org/2000/svg" xmlns:xlink="http://www.w3.org/1999/xlink" width="500" zoomAndPan="magnify" viewBox="0 0 375 374.999991" height="500" preserveAspectRatio="xMidYMid meet" version="1.0"><defs><g/></defs><rect x="-37.5" width="450" fill="#ffffff" y="-37.499999" height="449.999989" fill-opacity="1"/><rect x="-37.5" width="450" fill="#ffffff" y="-37.499999" height="449.999989" fill-opacity="1"/><g fill="#000000" fill-opacity="1"><g transform="translate(10.435979, 241.398096)"><g><path d="M -7.171875 0 L 106.0625 -191.875 L 219.28125 0 Z M -7.171875 0 "/></g></g></g><g fill="#ff4500" fill-opacity="1"><g transform="translate(221.776267, 241.398096)"><g><path d="M 97.34375 -89.65625 L 147.046875 -89.65625 L 147.046875 0 L 7.6875 0 L 7.6875 -179.328125 L 97.34375 -179.328125 Z M 97.34375 -89.65625 "/></g></g></g><g fill="#000000" fill-opacity="1"><g transform="translate(6.713941, 301.270748)"><g><path d="M 21.5625 -42.65625 C 22.257812 -42.65625 22.914062 -42.507812 23.53125 -42.21875 C 24.15625 -41.9375 24.617188 -41.46875 24.921875 -40.8125 L 43.578125 -4.21875 C 44.148438 -3.25 44.304688 -2.398438 44.046875 -1.671875 C 43.785156 -0.953125 43.28125 -0.382812 42.53125 0.03125 C 41.78125 0.445312 40.988281 0.65625 40.15625 0.65625 C 39.539062 0.65625 38.914062 0.488281 38.28125 0.15625 C 37.644531 -0.164062 37.148438 -0.632812 36.796875 -1.25 L 32.171875 -10.421875 L 10.953125 -10.421875 L 6.328125 -1.25 C 6.023438 -0.550781 5.550781 -0.0625 4.90625 0.21875 C 4.269531 0.507812 3.644531 0.65625 3.03125 0.65625 C 2.28125 0.65625 1.539062 0.445312 0.8125 0.03125 C 0.09375 -0.382812 -0.425781 -0.953125 -0.75 -1.671875 C -1.082031 -2.398438 -1.050781 -3.179688 -0.65625 -4.015625 L 18.140625 -40.8125 C 18.484375 -41.5625 18.929688 -42.054688 19.484375 -42.296875 C 20.035156 -42.535156 20.726562 -42.65625 21.5625 -42.65625 Z M 21.5625 -31.515625 L 14.171875 -16.8125 L 28.953125 -16.8125 Z M 21.5625 -31.515625 "/></g></g></g><g fill="#000000" fill-opacity="1"><g transform="translate(52.668803, 301.270748)"><g><path d="M 19.453125 -42 C 23.453125 -42 26.945312 -41.117188 29.9375 -39.359375 C 32.925781 -37.609375 35.253906 -35.160156 36.921875 -32.015625 C 38.597656 -28.867188 39.4375 -25.1875 39.4375 -20.96875 C 39.4375 -16.789062 38.597656 -13.117188 36.921875 -9.953125 C 35.253906 -6.785156 32.925781 -4.332031 29.9375 -2.59375 C 26.945312 -0.863281 23.453125 0 19.453125 0 L 5.875 0 C 4.6875 0 3.660156 -0.382812 2.796875 -1.15625 C 1.941406 -1.925781 1.515625 -2.835938 1.515625 -3.890625 L 1.515625 -38.171875 C 1.515625 -39.234375 1.941406 -40.132812 2.796875 -40.875 C 3.660156 -41.625 4.6875 -42 5.875 -42 Z M 19.453125 -6.53125 C 21.910156 -6.53125 24.070312 -7.132812 25.9375 -8.34375 C 27.8125 -9.550781 29.265625 -11.226562 30.296875 -13.375 C 31.328125 -15.53125 31.84375 -18.0625 31.84375 -20.96875 C 31.84375 -23.863281 31.328125 -26.410156 30.296875 -28.609375 C 29.265625 -30.804688 27.8125 -32.507812 25.9375 -33.71875 C 24.070312 -34.9375 21.910156 -35.546875 19.453125 -35.546875 L 9.03125 -35.546875 L 9.03125 -6.53125 Z M 19.453125 -6.53125 "/></g></g></g><g fill="#000000" fill-opacity="1"><g transform="translate(95.986365, 301.270748)"><g><path d="M 11.28125 -6.796875 L 34.75 -6.796875 C 36.019531 -6.796875 36.972656 -6.441406 37.609375 -5.734375 C 38.253906 -5.035156 38.578125 -4.265625 38.578125 -3.421875 C 38.578125 -2.585938 38.253906 -1.828125 37.609375 -1.140625 C 36.972656 -0.460938 36.019531 -0.0820312 34.75 0 L 4.15625 0 C 2.832031 0 1.816406 -0.316406 1.109375 -0.953125 C 0.410156 -1.585938 0.0625 -2.328125 0.0625 -3.171875 C 0.0625 -4.003906 0.414062 -4.835938 1.125 -5.671875 L 27.171875 -35.40625 L 5.015625 -35.40625 C 3.785156 -35.40625 2.875 -35.742188 2.28125 -36.421875 C 1.6875 -37.109375 1.390625 -37.847656 1.390625 -38.640625 C 1.390625 -39.429688 1.6875 -40.1875 2.28125 -40.90625 C 2.875 -41.632812 3.765625 -42 4.953125 -42 L 34.546875 -42 C 35.867188 -42 36.878906 -41.691406 37.578125 -41.078125 C 38.285156 -40.460938 38.640625 -39.71875 38.640625 -38.84375 C 38.640625 -38.09375 38.265625 -37.210938 37.515625 -36.203125 Z M 11.28125 -6.796875 "/></g></g></g><g fill="#000000" fill-opacity="1"><g transform="translate(136.468836, 301.270748)"><g><path d="M 6.921875 -40.15625 L 19.0625 -23.609375 L 31.1875 -39.953125 C 31.664062 -40.566406 32.203125 -41.0625 32.796875 -41.4375 C 33.390625 -41.8125 34.039062 -42 34.75 -42 C 35.582031 -42 36.328125 -41.710938 36.984375 -41.140625 C 37.648438 -40.566406 38.054688 -39.84375 38.203125 -38.96875 C 38.359375 -38.09375 38.085938 -37.171875 37.390625 -36.203125 L 22.953125 -16.875 L 22.953125 -3.953125 C 22.953125 -2.722656 22.53125 -1.753906 21.6875 -1.046875 C 20.851562 -0.347656 20 0 19.125 0 C 18.070312 0 17.171875 -0.347656 16.421875 -1.046875 C 15.671875 -1.753906 15.296875 -2.722656 15.296875 -3.953125 L 15.296875 -16.875 L 0.53125 -36.390625 C -0.132812 -37.316406 -0.390625 -38.207031 -0.234375 -39.0625 C -0.078125 -39.925781 0.347656 -40.628906 1.046875 -41.171875 C 1.753906 -41.722656 2.546875 -42 3.421875 -42 C 4.878906 -42 6.046875 -41.382812 6.921875 -40.15625 Z M 6.921875 -40.15625 "/></g></g></g><g fill="#000000" fill-opacity="1"><g transform="translate(177.14911, 301.270748)"><g/></g></g><g fill="#000000" fill-opacity="1"><g transform="translate(195.148643, 301.270748)"><g><path d="M 7.71875 0 C 6.3125 0 5.300781 -0.304688 4.6875 -0.921875 C 4.070312 -1.535156 3.765625 -2.414062 3.765625 -3.5625 L 3.765625 -38.640625 C 3.765625 -39.785156 4.171875 -40.628906 4.984375 -41.171875 C 5.796875 -41.722656 6.6875 -42 7.65625 -42 C 8.570312 -42 9.4375 -41.722656 10.25 -41.171875 C 11.0625 -40.628906 11.46875 -39.785156 11.46875 -38.640625 L 11.46875 -6.59375 L 33.09375 -6.59375 C 34.375 -6.59375 35.351562 -6.238281 36.03125 -5.53125 C 36.71875 -4.832031 37.0625 -4.085938 37.0625 -3.296875 C 37.0625 -2.460938 36.71875 -1.703125 36.03125 -1.015625 C 35.351562 -0.335938 34.375 0 33.09375 0 Z M 7.71875 0 "/></g></g></g><g fill="#000000" fill-opacity="1"><g transform="translate(233.125686, 301.270748)"><g><path d="M 21.5625 -42.65625 C 22.257812 -42.65625 22.914062 -42.507812 23.53125 -42.21875 C 24.15625 -41.9375 24.617188 -41.46875 24.921875 -40.8125 L 43.578125 -4.21875 C 44.148438 -3.25 44.304688 -2.398438 44.046875 -1.671875 C 43.785156 -0.953125 43.28125 -0.382812 42.53125 0.03125 C 41.78125 0.445312 40.988281 0.65625 40.15625 0.65625 C 39.539062 0.65625 38.914062 0.488281 38.28125 0.15625 C 37.644531 -0.164062 37.148438 -0.632812 36.796875 -1.25 L 32.171875 -10.421875 L 10.953125 -10.421875 L 6.328125 -1.25 C 6.023438 -0.550781 5.550781 -0.0625 4.90625 0.21875 C 4.269531 0.507812 3.644531 0.65625 3.03125 0.65625 C 2.28125 0.65625 1.539062 0.445312 0.8125 0.03125 C 0.09375 -0.382812 -0.425781 -0.953125 -0.75 -1.671875 C -1.082031 -2.398438 -1.050781 -3.179688 -0.65625 -4.015625 L 18.140625 -40.8125 C 18.484375 -41.5625 18.929688 -42.054688 19.484375 -42.296875 C 20.035156 -42.535156 20.726562 -42.65625 21.5625 -42.65625 Z M 21.5625 -31.515625 L 14.171875 -16.8125 L 28.953125 -16.8125 Z M 21.5625 -31.515625 "/></g></g></g><g fill="#000000" fill-opacity="1"><g transform="translate(279.080548, 301.270748)"><g><path d="M 22.484375 -42 C 24.066406 -42 25.789062 -41.851562 27.65625 -41.5625 C 29.53125 -41.28125 31.300781 -40.742188 32.96875 -39.953125 C 34.632812 -39.160156 36.003906 -37.992188 37.078125 -36.453125 C 38.160156 -34.921875 38.703125 -32.925781 38.703125 -30.46875 C 38.703125 -29.0625 38.359375 -27.609375 37.671875 -26.109375 C 36.992188 -24.617188 36.039062 -23.519531 34.8125 -22.8125 C 37.101562 -21.894531 38.804688 -20.566406 39.921875 -18.828125 C 41.046875 -17.085938 41.609375 -15.050781 41.609375 -12.71875 C 41.609375 -10.175781 41.085938 -8.078125 40.046875 -6.421875 C 39.015625 -4.773438 37.640625 -3.476562 35.921875 -2.53125 C 34.210938 -1.59375 32.3125 -0.9375 30.21875 -0.5625 C 28.132812 -0.1875 26.019531 0 23.875 0 L 7.78125 0 C 6.726562 0 5.816406 -0.335938 5.046875 -1.015625 C 4.273438 -1.703125 3.890625 -2.53125 3.890625 -3.5 L 3.890625 -38.5 C 3.890625 -39.519531 4.273438 -40.359375 5.046875 -41.015625 C 5.816406 -41.671875 6.726562 -42 7.78125 -42 Z M 22.484375 -35.46875 L 11.546875 -35.46875 L 11.546875 -25.25 L 22.6875 -25.25 C 24.925781 -25.25 26.890625 -25.65625 28.578125 -26.46875 C 30.273438 -27.28125 31.125 -28.613281 31.125 -30.46875 C 31.125 -31.914062 30.628906 -32.988281 29.640625 -33.6875 C 28.648438 -34.394531 27.484375 -34.867188 26.140625 -35.109375 C 24.804688 -35.347656 23.585938 -35.46875 22.484375 -35.46875 Z M 25.78125 -18.71875 L 11.546875 -18.71875 L 11.546875 -6.53125 L 23.875 -6.53125 C 25.457031 -6.53125 27.015625 -6.679688 28.546875 -6.984375 C 30.085938 -7.296875 31.351562 -7.898438 32.34375 -8.796875 C 33.332031 -9.703125 33.828125 -11.007812 33.828125 -12.71875 C 33.828125 -14.75 33.046875 -16.253906 31.484375 -17.234375 C 29.921875 -18.222656 28.019531 -18.71875 25.78125 -18.71875 Z M 25.78125 -18.71875 "/></g></g></g><g fill="#000000" fill-opacity="1"><g transform="translate(324.376086, 301.270748)"><g><path d="M 0.46875 -9.953125 C 0.15625 -11.234375 0.457031 -12.242188 1.375 -12.984375 C 2.300781 -13.734375 3.335938 -14.109375 4.484375 -14.109375 C 5.359375 -14.109375 6.132812 -13.898438 6.8125 -13.484375 C 7.5 -13.066406 7.929688 -12.421875 8.109375 -11.546875 C 8.585938 -10.128906 9.5 -9.035156 10.84375 -8.265625 C 12.1875 -7.503906 13.691406 -6.976562 15.359375 -6.6875 C 17.035156 -6.40625 18.597656 -6.265625 20.046875 -6.265625 C 21.191406 -6.265625 22.441406 -6.351562 23.796875 -6.53125 C 25.160156 -6.707031 26.457031 -7.023438 27.6875 -7.484375 C 28.925781 -7.941406 29.9375 -8.585938 30.71875 -9.421875 C 31.507812 -10.265625 31.90625 -11.34375 31.90625 -12.65625 C 31.90625 -14.0625 31.320312 -15.09375 30.15625 -15.75 C 29 -16.414062 27.519531 -16.890625 25.71875 -17.171875 C 23.914062 -17.460938 22.023438 -17.671875 20.046875 -17.796875 C 17.804688 -17.972656 15.550781 -18.238281 13.28125 -18.59375 C 11.019531 -18.945312 8.953125 -19.519531 7.078125 -20.3125 C 5.210938 -21.101562 3.707031 -22.253906 2.5625 -23.765625 C 1.425781 -25.285156 0.859375 -27.296875 0.859375 -29.796875 C 0.859375 -32.046875 1.425781 -33.984375 2.5625 -35.609375 C 3.707031 -37.234375 5.203125 -38.5625 7.046875 -39.59375 C 8.898438 -40.625 10.898438 -41.390625 13.046875 -41.890625 C 15.203125 -42.398438 17.316406 -42.65625 19.390625 -42.65625 C 21.671875 -42.65625 24.0625 -42.390625 26.5625 -41.859375 C 29.070312 -41.335938 31.367188 -40.40625 33.453125 -39.0625 C 35.546875 -37.726562 37.097656 -35.851562 38.109375 -33.4375 C 38.460938 -32.195312 38.207031 -31.171875 37.34375 -30.359375 C 36.488281 -29.546875 35.492188 -29.140625 34.359375 -29.140625 C 33.648438 -29.140625 32.976562 -29.304688 32.34375 -29.640625 C 31.707031 -29.972656 31.253906 -30.421875 30.984375 -30.984375 C 30.460938 -32.347656 29.539062 -33.359375 28.21875 -34.015625 C 26.90625 -34.679688 25.457031 -35.113281 23.875 -35.3125 C 22.289062 -35.507812 20.816406 -35.609375 19.453125 -35.609375 C 18.578125 -35.609375 17.53125 -35.519531 16.3125 -35.34375 C 15.101562 -35.164062 13.925781 -34.859375 12.78125 -34.421875 C 11.644531 -33.984375 10.691406 -33.378906 9.921875 -32.609375 C 9.148438 -31.835938 8.765625 -30.878906 8.765625 -29.734375 C 8.765625 -28.328125 9.3125 -27.269531 10.40625 -26.5625 C 11.507812 -25.863281 12.972656 -25.382812 14.796875 -25.125 C 16.628906 -24.863281 18.617188 -24.644531 20.765625 -24.46875 C 23.054688 -24.25 25.332031 -23.992188 27.59375 -23.703125 C 29.851562 -23.421875 31.90625 -22.914062 33.75 -22.1875 C 35.601562 -21.457031 37.078125 -20.359375 38.171875 -18.890625 C 39.273438 -17.421875 39.828125 -15.363281 39.828125 -12.71875 C 39.828125 -10.082031 39.195312 -7.90625 37.9375 -6.1875 C 36.6875 -4.476562 35.050781 -3.117188 33.03125 -2.109375 C 31.007812 -1.097656 28.851562 -0.382812 26.5625 0.03125 C 24.28125 0.445312 22.109375 0.65625 20.046875 0.65625 C 18.328125 0.65625 16.457031 0.488281 14.4375 0.15625 C 12.414062 -0.164062 10.445312 -0.734375 8.53125 -1.546875 C 6.625 -2.359375 4.941406 -3.445312 3.484375 -4.8125 C 2.035156 -6.175781 1.03125 -7.890625 0.46875 -9.953125 Z M 0.46875 -9.953125 "/></g></g></g></svg>